# xmcd
#
# Track frame offsets: 
#        150
#        13287
#        30460
#        45375
#        63352
#        79875
#        102365
#        123135
#        138677
#        158750
#
# Disc length: 2325 seconds
#
# Revision: 4
# Processed by: cddbd v1.5.2PL0 Copyright (c) Steve Scherf et al.
# Submitted via: ExactAudioCopyFreeDBPlugin 1.0
#
DISCID=7c09130a
DTITLE=Reba McEntire - Rumor Has It
DYEAR=1990
DGENRE=Country
TTITLE0=Climb That Mountain High
TTITLE1=Rumor Has It
TTITLE2=Waiting For The Deal To Go Down
TTITLE3=You Lie
TTITLE4=Now You Tell Me
TTITLE5=Fancy
TTITLE6=Fallin' Out Of Love
TTITLE7=This Picture
TTITLE8=You Remember Me
TTITLE9=That's All She Wrote
EXTD=
EXTT0=
EXTT1=
EXTT2=
EXTT3=
EXTT4=
EXTT5=
EXTT6=
EXTT7=
EXTT8=
EXTT9=
PLAYORDER=
